<?xml version="1.0" standalone="no"?>
<!DOCTYPE svg PUBLIC "-//W3C//DTD SVG 20010904//EN"
 "http://www.w3.org/TR/2001/REC-SVG-20010904/DTD/svg10.dtd">
<svg version="1.0" xmlns="http://www.w3.org/2000/svg"
 width="336.000000pt" height="336.000000pt" viewBox="0 0 336.000000 336.000000"
 preserveAspectRatio="xMidYMid meet">
<metadata>
Created by potrace 1.14, written by Peter Selinger 2001-2017
</metadata>
<g transform="translate(0.000000,336.000000) scale(0.100000,-0.100000)"
fill="#000000" stroke="none">
<path d="M2592 2785 c-69 -21 -139 -81 -174 -149 -76 -147 -12 -334 139 -407
61 -30 167 -35 227 -12 59 23 120 72 152 121 27 44 53 132 48 164 -1 9 -5 36
-8 59 -11 81 -78 167 -164 209 -54 27 -158 34 -220 15z"/>
<path d="M559 2740 c-104 -36 -170 -128 -170 -241 -1 -98 53 -183 145 -232 41
-22 42 -22 736 -22 l695 0 47 24 c191 98 192 364 2 461 l-49 25 -678 1 c-608
0 -684 -1 -728 -16z"/>
<path d="M73 2592 c-26 -4 -73 -56 -73 -81 0 -34 21 -78 43 -90 49 -26 105
-14 130 28 24 40 21 74 -8 109 -25 30 -52 40 -92 34z"/>
<path d="M659 1975 c-2 -2 -18 -5 -35 -8 -76 -12 -157 -72 -198 -146 -32 -61
-37 -78 -37 -155 0 -147 127 -279 277 -289 162 -11 303 110 317 271 14 166
-105 310 -269 326 -29 2 -54 3 -55 1z"/>
<path d="M1420 1928 c-122 -21 -208 -127 -210 -256 -1 -116 86 -224 199 -247
45 -10 1327 -10 1371 0 84 18 145 68 180 149 57 128 -3 280 -132 336 -49 21
-61 21 -708 23 -362 1 -677 -1 -700 -5z"/>
<path d="M3213 1751 c-77 -47 -39 -171 52 -171 94 0 128 132 46 175 -39 20
-59 19 -98 -4z"/>
<path d="M2595 1137 c-213 -70 -279 -343 -120 -499 112 -111 289 -116 405 -11
163 146 128 400 -68 495 -54 26 -161 33 -217 15z"/>
<path d="M580 1101 c-87 -27 -160 -97 -181 -175 -26 -97 -2 -192 67 -259 77
-75 46 -72 814 -72 l685 0 43 23 c92 49 142 122 147 215 6 107 -47 199 -141
247 l-49 25 -680 2 c-374 1 -691 -2 -705 -6z"/>
<path d="M75 943 c-30 -7 -75 -54 -75 -78 0 -45 21 -83 53 -96 46 -19 79 -13
110 21 36 40 36 81 -1 119 -29 31 -55 41 -87 34z"/>
</g>
</svg>
