<?xml version="1.0" encoding="utf-8"?>
<!-- Generator: Adobe Illustrator 22.0.1, SVG Export Plug-In . SVG Version: 6.00 Build 0)  -->
<svg version="1.1" xmlns="http://www.w3.org/2000/svg" xmlns:xlink="http://www.w3.org/1999/xlink" x="0px" y="0px"
	 viewBox="0 0 728.5 515.9" style="enable-background:new 0 0 728.5 515.9;" xml:space="preserve">
<style type="text/css">
	.st0{fill:#FFFFFF;}
</style>
<g id="Layer_1">
	<rect width="728.5" height="515.9"/>
</g>
<g id="Icon">
	<circle id="XMLID_21_" class="st0" cx="206.1" cy="175" r="9.5"/>
	<circle id="XMLID_20_" class="st0" cx="206.1" cy="339.7" r="9.5"/>
	<circle id="XMLID_18_" class="st0" cx="522.9" cy="257.4" r="9.5"/>
	<path class="st0" d="M260.9,200.7h125.7c14.1,0,25.7-11.5,25.7-25.7v0c0-14.1-11.5-25.7-25.7-25.7H260.9
		c-14.1,0-25.7,11.5-25.7,25.7v0C235.2,189.1,246.7,200.7,260.9,200.7z"/>
	<path class="st0" d="M260.9,365.4h125.7c14.1,0,25.7-11.5,25.7-25.7v0c0-14.1-11.5-25.7-25.7-25.7H260.9
		c-14.1,0-25.7,11.5-25.7,25.7v0C235.2,353.8,246.7,365.4,260.9,365.4z"/>
	<circle id="XMLID_17_" class="st0" cx="464.9" cy="175" r="30"/>
	<circle id="XMLID_16_" class="st0" cx="464.9" cy="339.7" r="30"/>
	<path class="st0" d="M469.2,283H343c-14.1,0-25.7-11.5-25.7-25.7v0c0-14.1,11.5-25.7,25.7-25.7h126.2c14.1,0,25.7,11.5,25.7,25.7v0
		C494.9,271.4,483.3,283,469.2,283z"/>
	<circle id="XMLID_13_" class="st0" cx="265.2" cy="257.3" r="30"/>
</g>
</svg>
